{
	"patcher" : 	{
		"fileversion" : 1,
		"rect" : [ 104.0, 99.0, 767.0, 595.0 ],
		"bglocked" : 0,
		"defrect" : [ 104.0, 99.0, 767.0, 595.0 ],
		"openrect" : [ 0.0, 0.0, 0.0, 0.0 ],
		"openinpresentation" : 0,
		"default_fontsize" : 10.0,
		"default_fontface" : 0,
		"default_fontname" : "Arial Bold",
		"gridonopen" : 0,
		"gridsize" : [ 8.0, 8.0 ],
		"gridsnaponopen" : 0,
		"toolbarvisible" : 1,
		"boxanimatetime" : 200,
		"imprint" : 0,
		"enablehscroll" : 1,
		"enablevscroll" : 1,
		"devicewidth" : 0.0,
		"boxes" : [ 			{
				"box" : 				{
					"maxclass" : "comment",
					"text" : "device parameter id",
					"fontname" : "Arial",
					"numinlets" : 1,
					"numoutlets" : 0,
					"fontsize" : 10.0,
					"patching_rect" : [ 304.0, 144.0, 101.0, 18.0 ],
					"frgb" : [ 0.0, 0.0, 0.0, 1.0 ],
					"id" : "obj-21"
				}

			}
, 			{
				"box" : 				{
					"maxclass" : "comment",
					"text" : "-->",
					"fontname" : "Arial",
					"numinlets" : 1,
					"numoutlets" : 0,
					"fontsize" : 10.0,
					"patching_rect" : [ 56.0, 336.0, 21.0, 18.0 ],
					"frgb" : [ 0.0, 0.0, 0.0, 1.0 ],
					"id" : "obj-18"
				}

			}
, 			{
				"box" : 				{
					"maxclass" : "newobj",
					"text" : "scale 0. 1.",
					"fontname" : "Arial Bold",
					"numinlets" : 6,
					"numoutlets" : 1,
					"fontsize" : 10.0,
					"outlettype" : [ "" ],
					"patching_rect" : [ 200.0, 256.0, 89.5, 18.0 ],
					"id" : "obj-16"
				}

			}
, 			{
				"box" : 				{
					"maxclass" : "comment",
					"text" : "< every time the live.object is set to a new id we also issue a \"getpath\" message and save this path into this patcher \n\nOn load it is restored to recall the parameter assignment.",
					"linecount" : 7,
					"fontname" : "Arial",
					"numinlets" : 1,
					"numoutlets" : 0,
					"fontsize" : 10.0,
					"patching_rect" : [ 528.0, 496.0, 149.0, 87.0 ],
					"frgb" : [ 0.0, 0.0, 0.0, 1.0 ],
					"id" : "obj-14"
				}

			}
, 			{
				"box" : 				{
					"maxclass" : "newobj",
					"varname" : "M4L.api.SaveLivePath",
					"text" : "M4L.api.SaveLivePath",
					"fontname" : "Arial Bold",
					"numinlets" : 1,
					"color" : [ 0.545098, 0.85098, 0.592157, 1.0 ],
					"numoutlets" : 2,
					"fontsize" : 10.0,
					"outlettype" : [ "", "" ],
					"patching_rect" : [ 400.0, 528.0, 116.0, 18.0 ],
					"id" : "obj-15"
				}

			}
, 			{
				"box" : 				{
					"maxclass" : "message",
					"text" : "getpath",
					"fontname" : "Arial Bold",
					"numinlets" : 2,
					"numoutlets" : 1,
					"fontsize" : 10.0,
					"outlettype" : [ "" ],
					"patching_rect" : [ 432.0, 336.0, 47.0, 16.0 ],
					"id" : "obj-13"
				}

			}
, 			{
				"box" : 				{
					"maxclass" : "message",
					"text" : "help live.object",
					"fontname" : "Arial Bold",
					"numinlets" : 2,
					"numoutlets" : 1,
					"fontsize" : 10.0,
					"outlettype" : [ "" ],
					"patching_rect" : [ 592.0, 328.0, 83.0, 16.0 ],
					"bgcolor" : [ 0.984314, 0.819608, 0.05098, 1.0 ],
					"id" : "obj-55"
				}

			}
, 			{
				"box" : 				{
					"maxclass" : "newobj",
					"text" : "pcontrol",
					"fontname" : "Arial Bold",
					"numinlets" : 1,
					"numoutlets" : 1,
					"fontsize" : 10.0,
					"outlettype" : [ "" ],
					"patching_rect" : [ 592.0, 352.0, 50.0, 18.0 ],
					"hidden" : 1,
					"id" : "obj-56"
				}

			}
, 			{
				"box" : 				{
					"maxclass" : "comment",
					"text" : "< at first we have to initialise this patch by sending in a parameter id \n\nit will set the live.object to this parameter and ask for its min and max values for conversion and output them",
					"linecount" : 8,
					"fontname" : "Arial",
					"numinlets" : 1,
					"numoutlets" : 0,
					"fontsize" : 10.0,
					"patching_rect" : [ 592.0, 232.0, 149.0, 98.0 ],
					"frgb" : [ 0.0, 0.0, 0.0, 1.0 ],
					"id" : "obj-54"
				}

			}
, 			{
				"box" : 				{
					"maxclass" : "newobj",
					"text" : "clip 0. 1.",
					"fontname" : "Arial Bold",
					"numinlets" : 3,
					"numoutlets" : 1,
					"fontsize" : 10.0,
					"outlettype" : [ "" ],
					"patching_rect" : [ 200.0, 200.0, 66.0, 18.0 ],
					"id" : "obj-53"
				}

			}
, 			{
				"box" : 				{
					"maxclass" : "comment",
					"text" : "bang outputs value",
					"linecount" : 3,
					"fontname" : "Arial",
					"numinlets" : 1,
					"numoutlets" : 0,
					"fontsize" : 10.0,
					"patching_rect" : [ 16.0, 336.0, 44.0, 41.0 ],
					"frgb" : [ 0.0, 0.0, 0.0, 1.0 ],
					"id" : "obj-47"
				}

			}
, 			{
				"box" : 				{
					"maxclass" : "comment",
					"prototypename" : "ML.patcher-summary",
					"text" : "This patch represents a device parameter.",
					"fontname" : "Arial Bold Italic",
					"numinlets" : 1,
					"numoutlets" : 0,
					"fontsize" : 11.0,
					"patching_rect" : [ 232.0, 24.0, 231.0, 19.0 ],
					"frgb" : [ 0.0, 0.0, 0.0, 1.0 ],
					"id" : "obj-49"
				}

			}
, 			{
				"box" : 				{
					"maxclass" : "comment",
					"prototypename" : "ML.subpatcher-title",
					"text" : "Device Parameter",
					"fontname" : "Arial Bold Italic",
					"numinlets" : 1,
					"numoutlets" : 0,
					"fontsize" : 24.0,
					"patching_rect" : [ 16.0, 16.0, 215.0, 34.0 ],
					"textcolor" : [ 0.3, 0.34, 0.4, 1.0 ],
					"frgb" : [ 0.3, 0.34, 0.4, 1.0 ],
					"id" : "obj-33"
				}

			}
, 			{
				"box" : 				{
					"maxclass" : "comment",
					"prototypename" : "ML.patcher-story",
					"text" : "This patch represents a Ableton Live device parameter. It is set to a Live device parameter via sending an parameter id into the right input (try with M4L.api.SelectParameter).\n\nIt can set the value absolutely in its internal range (clipped to min and max) or \"raw\" [0...1] which will be scaled to fit between min and max.",
					"linecount" : 5,
					"fontname" : "Arial Italic",
					"numinlets" : 1,
					"numoutlets" : 0,
					"fontsize" : 11.0,
					"patching_rect" : [ 16.0, 48.0, 528.0, 70.0 ],
					"frgb" : [ 0.0, 0.0, 0.0, 1.0 ],
					"id" : "obj-50"
				}

			}
, 			{
				"box" : 				{
					"maxclass" : "newobj",
					"text" : "clip 0. 1.",
					"fontname" : "Arial Bold",
					"numinlets" : 3,
					"numoutlets" : 1,
					"fontsize" : 10.0,
					"outlettype" : [ "" ],
					"patching_rect" : [ 128.0, 256.0, 66.0, 18.0 ],
					"id" : "obj-32"
				}

			}
, 			{
				"box" : 				{
					"maxclass" : "outlet",
					"numinlets" : 1,
					"numoutlets" : 0,
					"patching_rect" : [ 336.0, 504.0, 18.0, 18.0 ],
					"id" : "obj-20",
					"comment" : "min"
				}

			}
, 			{
				"box" : 				{
					"maxclass" : "outlet",
					"numinlets" : 1,
					"numoutlets" : 0,
					"patching_rect" : [ 368.0, 504.0, 18.0, 18.0 ],
					"id" : "obj-3",
					"comment" : "max"
				}

			}
, 			{
				"box" : 				{
					"maxclass" : "newobj",
					"text" : "route value min max path",
					"fontname" : "Arial Bold",
					"numinlets" : 1,
					"numoutlets" : 5,
					"fontsize" : 10.0,
					"outlettype" : [ "", "", "", "", "" ],
					"patching_rect" : [ 304.0, 432.0, 147.0, 18.0 ],
					"id" : "obj-31"
				}

			}
, 			{
				"box" : 				{
					"maxclass" : "message",
					"text" : "set value $1",
					"fontname" : "Arial Bold",
					"numinlets" : 2,
					"numoutlets" : 1,
					"fontsize" : 10.0,
					"outlettype" : [ "" ],
					"patching_rect" : [ 200.0, 336.0, 71.0, 16.0 ],
					"id" : "obj-12"
				}

			}
, 			{
				"box" : 				{
					"maxclass" : "newobj",
					"text" : "route bang",
					"fontname" : "Arial Bold",
					"numinlets" : 1,
					"numoutlets" : 2,
					"fontsize" : 10.0,
					"outlettype" : [ "", "" ],
					"patching_rect" : [ 80.0, 200.0, 67.0, 18.0 ],
					"id" : "obj-11"
				}

			}
, 			{
				"box" : 				{
					"maxclass" : "message",
					"text" : "get value",
					"fontname" : "Arial Bold",
					"numinlets" : 2,
					"numoutlets" : 1,
					"fontsize" : 10.0,
					"outlettype" : [ "" ],
					"patching_rect" : [ 80.0, 336.0, 58.0, 16.0 ],
					"id" : "obj-10"
				}

			}
, 			{
				"box" : 				{
					"maxclass" : "outlet",
					"numinlets" : 1,
					"numoutlets" : 0,
					"patching_rect" : [ 304.0, 504.0, 18.0, 18.0 ],
					"id" : "obj-9",
					"comment" : "value out"
				}

			}
, 			{
				"box" : 				{
					"maxclass" : "inlet",
					"numinlets" : 0,
					"numoutlets" : 1,
					"outlettype" : [ "" ],
					"patching_rect" : [ 200.0, 168.0, 18.0, 18.0 ],
					"id" : "obj-8",
					"comment" : "raw value [0...1]"
				}

			}
, 			{
				"box" : 				{
					"maxclass" : "message",
					"text" : "get min",
					"fontname" : "Arial Bold",
					"numinlets" : 2,
					"numoutlets" : 1,
					"fontsize" : 10.0,
					"outlettype" : [ "" ],
					"patching_rect" : [ 304.0, 336.0, 50.0, 16.0 ],
					"id" : "obj-7"
				}

			}
, 			{
				"box" : 				{
					"maxclass" : "message",
					"text" : "get max",
					"fontname" : "Arial Bold",
					"numinlets" : 2,
					"numoutlets" : 1,
					"fontsize" : 10.0,
					"outlettype" : [ "" ],
					"patching_rect" : [ 368.0, 336.0, 52.0, 16.0 ],
					"id" : "obj-6"
				}

			}
, 			{
				"box" : 				{
					"maxclass" : "newobj",
					"text" : "t b b b l",
					"fontname" : "Arial Bold",
					"numinlets" : 1,
					"numoutlets" : 4,
					"fontsize" : 10.0,
					"outlettype" : [ "bang", "bang", "bang", "" ],
					"patching_rect" : [ 304.0, 296.0, 210.5, 18.0 ],
					"id" : "obj-5"
				}

			}
, 			{
				"box" : 				{
					"maxclass" : "newobj",
					"text" : "live.object",
					"fontname" : "Arial Bold",
					"numinlets" : 2,
					"color" : [ 0.984314, 0.819608, 0.05098, 1.0 ],
					"numoutlets" : 1,
					"fontsize" : 10.0,
					"outlettype" : [ "" ],
					"patching_rect" : [ 304.0, 400.0, 211.0, 18.0 ],
					"id" : "obj-4"
				}

			}
, 			{
				"box" : 				{
					"maxclass" : "inlet",
					"numinlets" : 0,
					"numoutlets" : 1,
					"outlettype" : [ "" ],
					"patching_rect" : [ 304.0, 168.0, 18.0, 18.0 ],
					"id" : "obj-2",
					"comment" : "parameter id"
				}

			}
, 			{
				"box" : 				{
					"maxclass" : "inlet",
					"numinlets" : 0,
					"numoutlets" : 1,
					"outlettype" : [ "" ],
					"patching_rect" : [ 80.0, 168.0, 18.0, 18.0 ],
					"id" : "obj-1",
					"comment" : "bang to output value, float to set value"
				}

			}
, 			{
				"box" : 				{
					"maxclass" : "comment",
					"text" : "a float in here will be scaled below and set the value ",
					"linecount" : 3,
					"fontname" : "Arial",
					"numinlets" : 1,
					"numoutlets" : 0,
					"fontsize" : 10.0,
					"patching_rect" : [ 152.0, 136.0, 128.0, 41.0 ],
					"frgb" : [ 0.0, 0.0, 0.0, 1.0 ],
					"id" : "obj-52"
				}

			}
, 			{
				"box" : 				{
					"maxclass" : "comment",
					"text" : "a float in here will directly set the value",
					"linecount" : 2,
					"fontname" : "Arial",
					"numinlets" : 1,
					"numoutlets" : 0,
					"fontsize" : 10.0,
					"patching_rect" : [ 32.0, 136.0, 107.0, 29.0 ],
					"frgb" : [ 0.0, 0.0, 0.0, 1.0 ],
					"id" : "obj-19"
				}

			}
 ],
		"lines" : [ 			{
				"patchline" : 				{
					"source" : [ "obj-15", 0 ],
					"destination" : [ "obj-5", 0 ],
					"hidden" : 0,
					"midpoints" : [ 409.5, 553.0, 740.0, 553.0, 740.0, 272.0, 313.5, 272.0 ]
				}

			}
, 			{
				"patchline" : 				{
					"source" : [ "obj-55", 0 ],
					"destination" : [ "obj-56", 0 ],
					"hidden" : 1,
					"midpoints" : [  ]
				}

			}
, 			{
				"patchline" : 				{
					"source" : [ "obj-8", 0 ],
					"destination" : [ "obj-53", 0 ],
					"hidden" : 0,
					"midpoints" : [  ]
				}

			}
, 			{
				"patchline" : 				{
					"source" : [ "obj-11", 0 ],
					"destination" : [ "obj-10", 0 ],
					"hidden" : 0,
					"midpoints" : [  ]
				}

			}
, 			{
				"patchline" : 				{
					"source" : [ "obj-11", 1 ],
					"destination" : [ "obj-32", 0 ],
					"hidden" : 0,
					"midpoints" : [  ]
				}

			}
, 			{
				"patchline" : 				{
					"source" : [ "obj-10", 0 ],
					"destination" : [ "obj-4", 0 ],
					"hidden" : 0,
					"midpoints" : [  ]
				}

			}
, 			{
				"patchline" : 				{
					"source" : [ "obj-12", 0 ],
					"destination" : [ "obj-4", 0 ],
					"hidden" : 0,
					"midpoints" : [  ]
				}

			}
, 			{
				"patchline" : 				{
					"source" : [ "obj-7", 0 ],
					"destination" : [ "obj-4", 0 ],
					"hidden" : 0,
					"midpoints" : [  ]
				}

			}
, 			{
				"patchline" : 				{
					"source" : [ "obj-1", 0 ],
					"destination" : [ "obj-11", 0 ],
					"hidden" : 0,
					"midpoints" : [  ]
				}

			}
, 			{
				"patchline" : 				{
					"source" : [ "obj-32", 0 ],
					"destination" : [ "obj-12", 0 ],
					"hidden" : 0,
					"midpoints" : [  ]
				}

			}
, 			{
				"patchline" : 				{
					"source" : [ "obj-5", 1 ],
					"destination" : [ "obj-6", 0 ],
					"hidden" : 0,
					"midpoints" : [  ]
				}

			}
, 			{
				"patchline" : 				{
					"source" : [ "obj-2", 0 ],
					"destination" : [ "obj-5", 0 ],
					"hidden" : 0,
					"midpoints" : [  ]
				}

			}
, 			{
				"patchline" : 				{
					"source" : [ "obj-5", 0 ],
					"destination" : [ "obj-7", 0 ],
					"hidden" : 0,
					"midpoints" : [  ]
				}

			}
, 			{
				"patchline" : 				{
					"source" : [ "obj-5", 3 ],
					"destination" : [ "obj-4", 1 ],
					"hidden" : 0,
					"midpoints" : [  ]
				}

			}
, 			{
				"patchline" : 				{
					"source" : [ "obj-5", 2 ],
					"destination" : [ "obj-13", 0 ],
					"hidden" : 0,
					"midpoints" : [  ]
				}

			}
, 			{
				"patchline" : 				{
					"source" : [ "obj-13", 0 ],
					"destination" : [ "obj-4", 0 ],
					"hidden" : 0,
					"midpoints" : [  ]
				}

			}
, 			{
				"patchline" : 				{
					"source" : [ "obj-6", 0 ],
					"destination" : [ "obj-4", 0 ],
					"hidden" : 0,
					"midpoints" : [  ]
				}

			}
, 			{
				"patchline" : 				{
					"source" : [ "obj-31", 0 ],
					"destination" : [ "obj-9", 0 ],
					"hidden" : 0,
					"midpoints" : [  ]
				}

			}
, 			{
				"patchline" : 				{
					"source" : [ "obj-31", 3 ],
					"destination" : [ "obj-15", 0 ],
					"hidden" : 0,
					"midpoints" : [  ]
				}

			}
, 			{
				"patchline" : 				{
					"source" : [ "obj-4", 0 ],
					"destination" : [ "obj-31", 0 ],
					"hidden" : 0,
					"midpoints" : [  ]
				}

			}
, 			{
				"patchline" : 				{
					"source" : [ "obj-31", 2 ],
					"destination" : [ "obj-16", 4 ],
					"hidden" : 0,
					"color" : [ 0.082353, 0.431373, 0.411765, 1.0 ],
					"midpoints" : [ 377.5, 486.0, 580.700012, 486.0, 580.700012, 223.0, 265.899994, 223.0 ]
				}

			}
, 			{
				"patchline" : 				{
					"source" : [ "obj-31", 1 ],
					"destination" : [ "obj-16", 3 ],
					"hidden" : 0,
					"color" : [ 0.470588, 0.113725, 0.545098, 1.0 ],
					"midpoints" : [ 345.5, 471.0, 554.650024, 471.0, 554.650024, 232.0, 251.800003, 232.0 ]
				}

			}
, 			{
				"patchline" : 				{
					"source" : [ "obj-53", 0 ],
					"destination" : [ "obj-16", 0 ],
					"hidden" : 0,
					"midpoints" : [  ]
				}

			}
, 			{
				"patchline" : 				{
					"source" : [ "obj-16", 0 ],
					"destination" : [ "obj-12", 0 ],
					"hidden" : 0,
					"midpoints" : [  ]
				}

			}
, 			{
				"patchline" : 				{
					"source" : [ "obj-31", 1 ],
					"destination" : [ "obj-20", 0 ],
					"hidden" : 0,
					"color" : [ 0.470588, 0.113725, 0.545098, 1.0 ],
					"midpoints" : [  ]
				}

			}
, 			{
				"patchline" : 				{
					"source" : [ "obj-31", 2 ],
					"destination" : [ "obj-3", 0 ],
					"hidden" : 0,
					"color" : [ 0.082353, 0.431373, 0.411765, 1.0 ],
					"midpoints" : [  ]
				}

			}
, 			{
				"patchline" : 				{
					"source" : [ "obj-31", 1 ],
					"destination" : [ "obj-32", 1 ],
					"hidden" : 0,
					"color" : [ 0.470588, 0.113725, 0.545098, 1.0 ],
					"midpoints" : [ 345.5, 471.0, 554.25, 471.0, 554.25, 232.0, 161.0, 232.0 ]
				}

			}
, 			{
				"patchline" : 				{
					"source" : [ "obj-31", 2 ],
					"destination" : [ "obj-32", 2 ],
					"hidden" : 0,
					"color" : [ 0.082353, 0.431373, 0.411765, 1.0 ],
					"midpoints" : [ 377.5, 486.0, 580.0, 486.0, 580.0, 223.0, 184.5, 223.0 ]
				}

			}
 ],
		"parameters" : 		{
			"obj-15::obj-14" : [ "live-path", "live-path", 0 ]
		}

	}

}
